<svg preserveAspectRatio="none" overflow="visible" style="display: block;" width="160" height="80" viewBox="0 0 160 80" fill="none" xmlns="http://www.w3.org/2000/svg">
<g id="samsung">
<path id="Logo_ratio" d="M0 45.8361V44.0909H6.14459V46.3107C6.13983 46.6023 6.19791 46.8916 6.31491 47.159C6.43192 47.4264 6.60514 47.6658 6.82291 47.861C7.04068 48.0563 7.29796 48.2028 7.57742 48.2908C7.85688 48.3788 8.15204 48.4062 8.44304 48.3712C8.94015 48.4383 9.44445 48.3171 9.85594 48.0315C10.2674 47.746 10.5561 47.317 10.6646 46.8296C10.8291 46.2713 10.8151 45.6759 10.6246 45.1258C9.43534 42.1498 1.30922 40.8026 0.276922 36.1641C0.0667544 35.1451 0.053701 34.0956 0.23846 33.0717C0.872303 29.3472 4.16152 28 8.24458 28C11.4953 28 15.9753 28.7532 15.9753 33.7469V35.3726H10.2676V33.9459C10.2849 33.6646 10.2407 33.383 10.1382 33.1204C10.0357 32.8578 9.87726 32.6203 9.67379 32.4244C9.47031 32.2285 9.22663 32.0787 8.95947 31.9854C8.69231 31.8921 8.40801 31.8574 8.12611 31.8838C7.64474 31.8311 7.16109 31.961 6.77179 32.2476C6.38249 32.5342 6.1162 32.9565 6.02612 33.43C5.96197 33.8253 5.97556 34.2293 6.06612 34.6195C6.73843 37.274 15.4215 38.7023 16.3738 43.4985C16.6118 44.7415 16.6248 46.0168 16.4122 47.2644C15.8568 51.067 12.4476 52.4938 8.32611 52.4938C3.99998 52.4938 0 50.9476 0 45.8361ZM74.4489 45.758V44.0128H80.515V46.1928C80.5055 46.4818 80.5588 46.7694 80.6712 47.0361C80.7837 47.3027 80.9527 47.542 81.1667 47.7377C81.3807 47.9333 81.6347 48.0807 81.9112 48.1697C82.1877 48.2587 82.4802 48.2872 82.7688 48.2533C83.2615 48.3264 83.7637 48.2119 84.1752 47.9327C84.5868 47.6534 84.8773 47.23 84.9888 46.7469C85.1533 46.2017 85.1398 45.6186 84.9504 45.0814C83.7996 42.1498 75.7519 40.795 74.7227 36.1641C74.5122 35.1586 74.4986 34.1222 74.6827 33.1116C75.3212 29.4268 78.615 28.0796 82.615 28.0796C85.8273 28.0796 90.2657 28.8726 90.2657 33.7867V35.3726H84.598V33.9857C84.6161 33.7079 84.574 33.4295 84.4744 33.1694C84.3748 32.9093 84.2202 32.6735 84.0211 32.4781C83.8219 32.2827 83.5828 32.1321 83.32 32.0367C83.0572 31.9413 82.7769 31.9033 82.4981 31.9251C82.0255 31.8628 81.5469 31.9848 81.1627 32.2655C80.7784 32.5463 80.5182 32.9641 80.4365 33.4315C80.3717 33.8267 80.3848 34.2307 80.475 34.621C81.1088 37.2755 89.7057 38.664 90.6642 43.4189C90.9019 44.6485 90.9149 45.9107 90.7026 47.145C90.1473 50.9507 86.778 52.3377 82.7027 52.3377C78.415 52.3407 74.4489 50.79 74.4489 45.758ZM96.1734 46.5923C96.1182 46.0917 96.1053 45.5872 96.1349 45.0844V28.6736H101.923V45.5973C101.915 45.8887 101.928 46.1802 101.961 46.4699C102.09 46.9471 102.374 47.3686 102.768 47.6693C103.162 47.9699 103.645 48.1328 104.142 48.1328C104.638 48.1328 105.121 47.9699 105.516 47.6693C105.91 47.3686 106.193 46.9471 106.323 46.4699C106.357 46.1803 106.37 45.8887 106.363 45.5973V28.6736H112.153V45.0814C112.153 45.5177 112.113 46.3505 112.113 46.5893C111.718 50.8757 108.347 52.2535 104.146 52.2535C99.9441 52.2535 96.5703 50.868 96.1734 46.5893V46.5923ZM143.825 46.3535C143.767 45.851 143.74 45.3453 143.745 44.8395V35.2134C143.745 34.8169 143.784 34.1036 143.824 33.7055C144.339 29.4268 147.789 28.0796 151.872 28.0796C155.916 28.0796 159.482 29.4268 159.881 33.7071C159.928 34.2082 159.941 34.712 159.919 35.215V35.9605H154.132V34.6991C154.132 34.4064 154.106 34.1143 154.053 33.8265C153.901 33.3432 153.598 32.921 153.188 32.6212C152.778 32.3213 152.282 32.1597 151.773 32.1597C151.264 32.1597 150.769 32.3213 150.359 32.6212C149.948 32.921 149.645 33.3432 149.493 33.8265C149.426 34.1795 149.4 34.5391 149.415 34.8981V45.36C149.408 45.6514 149.421 45.943 149.455 46.2326C149.592 46.7515 149.911 47.2047 150.354 47.5106C150.797 47.8164 151.335 47.955 151.872 47.9012C152.399 47.957 152.928 47.8184 153.359 47.5117C153.79 47.205 154.093 46.7514 154.21 46.2372C154.263 45.9495 154.277 45.6559 154.25 45.3646V42.0304H151.912V38.7007H159.999V44.8395C160.005 45.3428 159.978 45.846 159.919 46.3459C159.524 50.5067 155.919 51.9733 151.872 51.9733C147.824 51.9733 144.221 50.5113 143.825 46.3505V46.3535ZM63.152 51.5416L62.9982 30.3774L59.0289 51.5416H53.2413L49.3151 30.3774L49.1613 51.5416H43.449L43.9244 28.7134H53.2413L56.1351 46.5495L59.0289 28.7134H68.3443L68.8597 51.5416H63.152ZM32.706 51.5416L29.6137 30.3774L26.4414 51.5416H20.2584L24.4614 28.7134H34.6506L38.8537 51.5416H32.706ZM129.593 51.3043L123.846 32.3201L124.162 51.3028H118.532V28.7134H127.015L132.399 47.1036L132.09 28.7134H137.759V51.3059L129.593 51.3043Z" fill="white"/>
</g>
</svg>
